
#
# object Box001
#

v  1.00 0.00 -1.00
v  1.00 0.00 1.00
v  -1.00 0.00 1.00
v  -1.00 0.00 -1.00
v  1.00 2.00 -1.00
v  -1.00 2.00 -1.00
v  -1.00 2.00 1.00
v  1.00 2.00 1.00
# 8 vertices

vn 0.00 -1.00 -0.00
vn 0.00 1.00 -0.00
vn 0.00 0.00 1.00
vn 1.00 0.00 -0.00
vn 0.00 0.00 -1.00
vn -1.00 0.00 -0.00
# 6 vertex normals

vt 0.00 1.00 0.00
vt 0.00 0.50 0.00
vt 0.50 0.50 0.00
vt 0.50 1.00 0.00
vt 1.00 1.00 0.00
vt 0.50 1.00 0.00
vt 0.50 0.50 0.00
vt 1.00 0.50 0.00
vt 0.50 0.50 0.00
vt 0.00 0.50 0.00
vt 0.00 0.00 0.00
vt 0.50 0.00 0.00
vt 0.00 0.00 0.00
vt 0.50 0.00 0.00
# 14 texture coords

g Box001
f 1/1/1 2/2/1 3/3/1 
f 3/3/1 4/4/1 1/1/1 
f 5/5/2 6/6/2 7/7/2 
f 7/7/2 8/8/2 5/5/2 
f 8/9/3 7/10/3 3/11/3 
f 3/11/3 2/12/3 8/9/3 
f 5/9/4 8/10/4 2/13/4 
f 2/13/4 1/14/4 5/9/4 
f 6/9/5 5/10/5 1/11/5 
f 1/11/5 4/12/5 6/9/5 
f 7/9/6 6/10/6 4/13/6 
f 4/13/6 3/14/6 7/9/6 
# 12 faces

